<svg aria-hidden="true" style="position:absolute;width:0;height:0" xmlns="http://www.w3.org/2000/svg" overflow="hidden"><defs><symbol id="sass" viewBox="0 0 32 32"><path d="M16 0c8.836 0 16 7.164 16 16s-7.164 16-16 16S0 24.836 0 16 7.164 0 16 0zm-3.18 21.331c.233.86.208 1.664-.032 2.389l-.087.24c-.032.081-.069.16-.104.235a4.492 4.492 0 01-.74 1.08c-.931 1.012-2.229 1.396-2.787 1.073-.6-.349-.301-1.78.779-2.92 1.161-1.224 2.827-2.012 2.827-2.012v-.004zM26.035 6.849c-.723-2.844-5.436-3.779-9.896-2.193-2.652.943-5.525 2.424-7.591 4.356-2.457 2.295-2.848 4.295-2.687 5.131.569 2.948 4.609 4.876 6.271 6.307v.008c-.489.24-4.075 2.039-4.915 3.9-.9 1.96.14 3.361.82 3.54 2.1.581 4.26-.48 5.42-2.199 1.12-1.681 1.021-3.841.539-4.901.661-.18 1.44-.26 2.44-.139 2.801.32 3.361 2.08 3.24 2.8-.12.719-.697 1.139-.899 1.259-.2.121-.26.16-.241.241.02.12.121.12.28.1.22-.04 1.461-.6 1.521-1.961.06-1.72-1.581-3.639-4.5-3.6-1.2.021-1.961.121-2.5.341a.479.479 0 00-.14-.14c-1.8-1.94-5.14-3.3-5-5.88.04-.94.38-3.419 6.4-6.419 4.94-2.461 8.881-1.78 9.561-.28.977 2.139-2.101 6.12-7.241 6.699-1.96.22-2.98-.539-3.241-.82-.279-.3-.319-.32-.419-.259-.16.08-.06.34 0 .5.16.4.78 1.1 1.861 1.46.939.3 3.24.479 6-.6 3.099-1.199 5.519-4.54 4.819-7.34z"/></symbol><symbol id="nodejs" viewBox="0 0 32 32"><path d="M15.997 32c-.428 0-.855-.112-1.229-.329l-3.915-2.316c-.584-.327-.299-.443-.107-.511.78-.271.937-.333 1.771-.805.087-.049.201-.031.291.023l3.008 1.785c.109.06.263.06.363 0l11.727-6.768a.37.37 0 00.179-.317V9.229a.38.38 0 00-.183-.323L16.181 2.143a.368.368 0 00-.361 0L4.101 8.907a.378.378 0 00-.185.321v13.533c0 .129.072.252.185.313l3.212 1.856c1.743.872 2.811-.155 2.811-1.187V10.382c0-.189.152-.337.341-.337h1.487a.34.34 0 01.34.337v13.361c0 2.327-1.267 3.66-3.472 3.66-.677 0-1.212 0-2.701-.735l-3.077-1.769a2.475 2.475 0 01-1.229-2.139V9.227c0-.879.471-1.7 1.229-2.137L14.769.314a2.567 2.567 0 012.464 0L28.958 7.09a2.475 2.475 0 011.232 2.137V22.76c0 .879-.472 1.697-1.232 2.139L17.233 31.67a2.45 2.45 0 01-1.233.329zm9.468-13.343c0-2.533-1.712-3.208-5.316-3.684-3.641-.481-4.012-.731-4.012-1.583 0-.704.313-1.644 3.011-1.644 2.409 0 3.297.519 3.663 2.143a.338.338 0 00.329.265h1.521a.34.34 0 00.337-.369c-.236-2.797-2.095-4.101-5.851-4.101-3.344 0-5.339 1.411-5.339 3.777 0 2.567 1.984 3.276 5.193 3.593 3.84.376 4.137.937 4.137 1.692 0 1.311-1.052 1.869-3.523 1.869-3.103 0-3.785-.779-4.015-2.323a.34.34 0 00-.337-.287h-1.516a.336.336 0 00-.339.337c0 1.976 1.075 4.331 6.207 4.331 3.717.001 5.848-1.461 5.848-4.017z"/></symbol><symbol id="redux" viewBox="0 0 32 32"><path d="M22.177 22.005c1.159-.1 2.057-1.12 1.999-2.339-.061-1.219-1.06-2.197-2.277-2.197h-.081a2.28 2.28 0 00-2.197 2.359c.04.639.301 1.159.659 1.537-1.397 2.717-3.495 4.715-6.672 6.393-2.137 1.117-4.395 1.539-6.592 1.239-1.837-.259-3.275-1.08-4.155-2.397-1.317-1.999-1.437-4.155-.34-6.312.801-1.559 1.999-2.697 2.799-3.257a13.28 13.28 0 01-.56-2.056C-1.155 19.211-.553 25.003 1.244 27.74c1.339 1.997 4.076 3.275 7.072 3.275.799 0 1.639-.059 2.457-.259 5.195-.999 9.129-4.115 11.387-8.709zm7.131-4.994c-3.095-3.636-7.651-5.633-12.845-5.633h-.68c-.337-.739-1.116-1.199-1.996-1.199h-.06c-1.257 0-2.237 1.08-2.196 2.337.04 1.197 1.059 2.197 2.277 2.197h.099c.9-.04 1.679-.6 1.997-1.399h.74c3.079 0 5.993.899 8.651 2.656 2.036 1.339 3.496 3.096 4.315 5.195.717 1.717.679 3.396-.06 4.796-1.139 2.196-3.057 3.356-5.593 3.356-1.599 0-3.156-.5-3.956-.859-.479.397-1.279 1.057-1.859 1.457 1.757.797 3.536 1.257 5.253 1.257 3.896 0 6.791-2.196 7.891-4.315 1.197-2.397 1.099-6.432-1.959-9.888zM8.653 22.723c.039 1.199 1.057 2.197 2.277 2.197h.08a2.25 2.25 0 002.197-2.357c0-1.199-1.039-2.196-2.257-2.196h-.081c-.08 0-.199 0-.3.039-1.657-2.797-2.357-5.795-2.096-9.028.159-2.437.959-4.556 2.396-6.313 1.199-1.499 3.456-2.239 4.995-2.277 4.315-.081 6.113 5.295 6.252 7.432l1.997.599C23.653 4.267 19.58.83 15.684.83c-3.656 0-7.031 2.657-8.391 6.553-1.857 5.195-.639 10.188 1.639 14.184-.199.26-.319.719-.279 1.157z"/></symbol><symbol id="react" viewBox="0 0 32 32"><path d="M16 13.148a2.852 2.852 0 000 5.704 2.852 2.852 0 000-5.704zm-7.989 8.525l-.629-.16C2.691 20.328.001 18.316.001 15.994s2.691-4.333 7.381-5.519l.629-.159.177.624a31.104 31.104 0 001.899 4.957l-.082-.186.135.284-.135.284a29.368 29.368 0 00-1.761 4.551l-.056.22zm-.922-9.74c-3.565 1.001-5.753 2.533-5.753 4.061 0 1.527 2.188 3.059 5.753 4.061a32.611 32.611 0 011.662-4.263l-.086.202a30.435 30.435 0 01-1.511-3.828l-.065-.234zm16.9 9.74l-.177-.625a30.782 30.782 0 00-1.9-4.954l.081.184-.135-.284.135-.284a29.456 29.456 0 001.762-4.55l.056-.221.177-.624.631.159c4.689 1.185 7.38 3.197 7.38 5.52s-2.691 4.333-7.38 5.519zm-.654-5.678a33.038 33.038 0 011.576 4.061c3.567-1.003 5.753-2.535 5.753-4.061 0-1.528-2.188-3.059-5.753-4.061a32.424 32.424 0 01-1.662 4.262l.086-.2zM7.08 11.927l-.177-.623C5.584 6.656 5.984 3.325 8 2.163c1.977-1.141 5.152.207 8.479 3.621l.453.465-.453.465a31.6 31.6 0 00-3.162 3.853l-.068.103-.18.257-.313.027a31.667 31.667 0 00-5.264.86l.218-.047zm2.528-8.84c-.357 0-.673.077-.94.231-1.325.764-1.56 3.42-.647 7.004a31.194 31.194 0 014.18-.658l.131-.01a33.328 33.328 0 012.756-3.414l-.02.022c-2.08-2.025-4.049-3.175-5.46-3.175zm12.785 27.149c-.001 0-.001 0 0 0-1.9 0-4.34-1.431-6.872-4.031l-.453-.465.453-.465a31.427 31.427 0 003.16-3.854l.068-.103.18-.257.312-.027a31.74 31.74 0 005.267-.858l-.218.046.629-.159.179.624c1.316 4.645.917 7.977-1.099 9.139a3.132 3.132 0 01-1.562.411h-.047.002zm-5.461-4.508c2.08 2.025 4.049 3.175 5.46 3.175h.001c.356 0 .673-.077.939-.231 1.325-.764 1.561-3.421.647-7.005a30.933 30.933 0 01-4.182.658l-.13.01a33.219 33.219 0 01-2.755 3.416l.02-.022zm7.988-13.801l-.629-.159c-1.453-.376-3.175-.664-4.939-.806l-.111-.007-.312-.027-.18-.257a31.57 31.57 0 00-3.237-3.966l.009.01-.453-.465.453-.465C18.846 2.372 22.02 1.024 24 2.164c2.016 1.163 2.416 4.493 1.099 9.14zm-5.253-2.274c1.523.139 2.969.364 4.312.668.915-3.584.679-6.24-.647-7.004-1.317-.761-3.793.405-6.4 2.944a33.376 33.376 0 012.666 3.289l.069.103zM9.608 30.236h-.046a3.153 3.153 0 01-1.577-.419l.015.008c-2.016-1.161-2.416-4.492-1.097-9.139l.176-.624.629.159c1.54.388 3.239.661 5.047.812l.313.027.179.257a31.521 31.521 0 003.239 3.967l-.01-.01.453.465-.453.465c-2.531 2.6-4.971 4.031-6.868 4.031zm-1.587-8.569c-.915 3.584-.679 6.241.647 7.005 1.316.751 3.791-.407 6.4-2.944a33.543 33.543 0 01-2.667-3.29l-.069-.103a33.315 33.315 0 01-4.534-.711l.224.043zm7.979.837c-1.097 0-2.225-.048-3.355-.141l-.313-.027-.18-.257a38.303 38.303 0 01-1.697-2.639l-.103-.19a36.12 36.12 0 01-1.45-2.728l-.105-.243-.133-.284.133-.284a38.537 38.537 0 011.658-3.161l-.103.191a40.4 40.4 0 011.8-2.829l.18-.257.313-.027a40.227 40.227 0 016.86.011l-.15-.011.312.027.179.257a39.103 39.103 0 013.252 5.56l.104.24.135.284-.135.284a39.328 39.328 0 01-3.439 5.925l.083-.125-.179.257-.312.027a41.083 41.083 0 01-3.356.141zm-2.929-1.445c1.973.148 3.885.148 5.86 0a37.57 37.57 0 002.827-4.836l.101-.228a37.891 37.891 0 00-3.012-5.19l.083.126a39.304 39.304 0 00-5.992.008l.134-.008a36.95 36.95 0 00-2.83 4.84l-.099.224a38.502 38.502 0 003.014 5.193l-.085-.13z"/></symbol><symbol id="js" viewBox="0 0 32 32"><path d="M0 0h32v32H0zm29.379 24.368c-.233-1.46-1.184-2.687-4.004-3.831-.981-.46-2.072-.78-2.396-1.52-.121-.44-.14-.68-.061-.94.2-.861 1.22-1.12 2.02-.88.52.16 1 .56 1.301 1.2 1.379-.901 1.379-.901 2.34-1.5-.36-.56-.539-.801-.781-1.04-.84-.94-1.959-1.42-3.779-1.379l-.94.119c-.901.22-1.76.7-2.28 1.34-1.52 1.721-1.081 4.721.759 5.961 1.82 1.36 4.481 1.659 4.821 2.94.32 1.56-1.16 2.06-2.621 1.88-1.081-.24-1.68-.781-2.34-1.781l-2.44 1.401c.28.64.6.919 1.08 1.479 2.32 2.341 8.12 2.221 9.161-1.339.039-.12.32-.94.099-2.2zm-11.978-9.66h-2.997c0 2.584-.012 5.152-.012 7.74 0 1.643.084 3.151-.184 3.615-.44.919-1.573.801-2.088.64-.528-.261-.796-.621-1.107-1.14-.084-.14-.147-.261-.169-.261l-2.433 1.5c.407.84 1 1.563 1.765 2.023 1.14.68 2.672.9 4.276.54 1.044-.301 1.944-.921 2.415-1.881.68-1.24.536-2.76.529-4.461.016-2.739 0-5.479 0-8.239z"/></symbol><symbol id="html" viewBox="0 0 32 32"><path d="M1.892 0l2.567 28.801L15.983 32l11.554-3.204L30.109 0H1.893zM24.52 9.42H11.003l.322 3.617h12.874l-.97 10.844-7.245 2.008-7.237-2.008-.495-5.547h3.547l.252 2.82 3.933 1.06.009-.002 3.935-1.062.408-4.58H8.094L7.141 5.889h17.694l-.316 3.532z"/></symbol></defs></svg>