<svg aria-hidden="true" style="position:absolute;width:0;height:0" xmlns="http://www.w3.org/2000/svg" overflow="hidden"><defs><symbol id="sass" viewBox="0 0 32 32"><path d="M16 0c8.836 0 16 7.164 16 16s-7.164 16-16 16S0 24.836 0 16 7.164 0 16 0zm-3.18 21.331c.233.86.208 1.664-.032 2.389l-.087.24c-.032.081-.069.16-.104.235a4.492 4.492 0 01-.74 1.08c-.931 1.012-2.229 1.396-2.787 1.073-.6-.349-.301-1.78.779-2.92 1.161-1.224 2.827-2.012 2.827-2.012v-.004zM26.035 6.849c-.723-2.844-5.436-3.779-9.896-2.193-2.652.943-5.525 2.424-7.591 4.356-2.457 2.295-2.848 4.295-2.687 5.131.569 2.948 4.609 4.876 6.271 6.307v.008c-.489.24-4.075 2.039-4.915 3.9-.9 1.96.14 3.361.82 3.54 2.1.581 4.26-.48 5.42-2.199 1.12-1.681 1.021-3.841.539-4.901.661-.18 1.44-.26 2.44-.139 2.801.32 3.361 2.08 3.24 2.8-.12.719-.697 1.139-.899 1.259-.2.121-.26.16-.241.241.02.12.121.12.28.1.22-.04 1.461-.6 1.521-1.961.06-1.72-1.581-3.639-4.5-3.6-1.2.021-1.961.121-2.5.341a.479.479 0 00-.14-.14c-1.8-1.94-5.14-3.3-5-5.88.04-.94.38-3.419 6.4-6.419 4.94-2.461 8.881-1.78 9.561-.28.977 2.139-2.101 6.12-7.241 6.699-1.96.22-2.98-.539-3.241-.82-.279-.3-.319-.32-.419-.259-.16.08-.06.34 0 .5.16.4.78 1.1 1.861 1.46.939.3 3.24.479 6-.6 3.099-1.199 5.519-4.54 4.819-7.34z"/></symbol><symbol id="nodejs" viewBox="0 0 32 32"><path d="M15.997 32c-.428 0-.855-.112-1.229-.329l-3.915-2.316c-.584-.327-.299-.443-.107-.511.78-.271.937-.333 1.771-.805.087-.049.201-.031.291.023l3.008 1.785c.109.06.263.06.363 0l11.727-6.768a.37.37 0 00.179-.317V9.229a.38.38 0 00-.183-.323L16.181 2.143a.368.368 0 00-.361 0L4.101 8.907a.378.378 0 00-.185.321v13.533c0 .129.072.252.185.313l3.212 1.856c1.743.872 2.811-.155 2.811-1.187V10.382c0-.189.152-.337.341-.337h1.487a.34.34 0 01.34.337v13.361c0 2.327-1.267 3.66-3.472 3.66-.677 0-1.212 0-2.701-.735l-3.077-1.769a2.475 2.475 0 01-1.229-2.139V9.227c0-.879.471-1.7 1.229-2.137L14.769.314a2.567 2.567 0 012.464 0L28.958 7.09a2.475 2.475 0 011.232 2.137V22.76c0 .879-.472 1.697-1.232 2.139L17.233 31.67a2.45 2.45 0 01-1.233.329zm9.468-13.343c0-2.533-1.712-3.208-5.316-3.684-3.641-.481-4.012-.731-4.012-1.583 0-.704.313-1.644 3.011-1.644 2.409 0 3.297.519 3.663 2.143a.338.338 0 00.329.265h1.521a.34.34 0 00.337-.369c-.236-2.797-2.095-4.101-5.851-4.101-3.344 0-5.339 1.411-5.339 3.777 0 2.567 1.984 3.276 5.193 3.593 3.84.376 4.137.937 4.137 1.692 0 1.311-1.052 1.869-3.523 1.869-3.103 0-3.785-.779-4.015-2.323a.34.34 0 00-.337-.287h-1.516a.336.336 0 00-.339.337c0 1.976 1.075 4.331 6.207 4.331 3.717.001 5.848-1.461 5.848-4.017z"/></symbol><symbol id="redux" viewBox="0 0 32 32"><path d="M22.177 22.005c1.159-.1 2.057-1.12 1.999-2.339-.061-1.219-1.06-2.197-2.277-2.197h-.081a2.28 2.28 0 00-2.197 2.359c.04.639.301 1.159.659 1.537-1.397 2.717-3.495 4.715-6.672 6.393-2.137 1.117-4.395 1.539-6.592 1.239-1.837-.259-3.275-1.08-4.155-2.397-1.317-1.999-1.437-4.155-.34-6.312.801-1.559 1.999-2.697 2.799-3.257a13.28 13.28 0 01-.56-2.056C-1.155 19.211-.553 25.003 1.244 27.74c1.339 1.997 4.076 3.275 7.072 3.275.799 0 1.639-.059 2.457-.259 5.195-.999 9.129-4.115 11.387-8.709zm7.131-4.994c-3.095-3.636-7.651-5.633-12.845-5.633h-.68c-.337-.739-1.116-1.199-1.996-1.199h-.06c-1.257 0-2.237 1.08-2.196 2.337.04 1.197 1.059 2.197 2.277 2.197h.099c.9-.04 1.679-.6 1.997-1.399h.74c3.079 0 5.993.899 8.651 2.656 2.036 1.339 3.496 3.096 4.315 5.195.717 1.717.679 3.396-.06 4.796-1.139 2.196-3.057 3.356-5.593 3.356-1.599 0-3.156-.5-3.956-.859-.479.397-1.279 1.057-1.859 1.457 1.757.797 3.536 1.257 5.253 1.257 3.896 0 6.791-2.196 7.891-4.315 1.197-2.397 1.099-6.432-1.959-9.888zM8.653 22.723c.039 1.199 1.057 2.197 2.277 2.197h.08a2.25 2.25 0 002.197-2.357c0-1.199-1.039-2.196-2.257-2.196h-.081c-.08 0-.199 0-.3.039-1.657-2.797-2.357-5.795-2.096-9.028.159-2.437.959-4.556 2.396-6.313 1.199-1.499 3.456-2.239 4.995-2.277 4.315-.081 6.113 5.295 6.252 7.432l1.997.599C23.653 4.267 19.58.83 15.684.83c-3.656 0-7.031 2.657-8.391 6.553-1.857 5.195-.639 10.188 1.639 14.184-.199.26-.319.719-.279 1.157z"/></symbol><symbol id="react" viewBox="0 0 32 32"><path d="M16 13.148a2.852 2.852 0 000 5.704 2.852 2.852 0 000-5.704zm-7.989 8.525l-.629-.16C2.691 20.328.001 18.316.001 15.994s2.691-4.333 7.381-5.519l.629-.159.177.624a31.104 31.104 0 001.899 4.957l-.082-.186.135.284-.135.284a29.368 29.368 0 00-1.761 4.551l-.056.22zm-.922-9.74c-3.565 1.001-5.753 2.533-5.753 4.061 0 1.527 2.188 3.059 5.753 4.061a32.611 32.611 0 011.662-4.263l-.086.202a30.435 30.435 0 01-1.511-3.828l-.065-.234zm16.9 9.74l-.177-.625a30.782 30.782 0 00-1.9-4.954l.081.184-.135-.284.135-.284a29.456 29.456 0 001.762-4.55l.056-.221.177-.624.631.159c4.689 1.185 7.38 3.197 7.38 5.52s-2.691 4.333-7.38 5.519zm-.654-5.678a33.038 33.038 0 011.576 4.061c3.567-1.003 5.753-2.535 5.753-4.061 0-1.528-2.188-3.059-5.753-4.061a32.424 32.424 0 01-1.662 4.262l.086-.2zM7.08 11.927l-.177-.623C5.584 6.656 5.984 3.325 8 2.163c1.977-1.141 5.152.207 8.479 3.621l.453.465-.453.465a31.6 31.6 0 00-3.162 3.853l-.068.103-.18.257-.313.027a31.667 31.667 0 00-5.264.86l.218-.047zm2.528-8.84c-.357 0-.673.077-.94.231-1.325.764-1.56 3.42-.647 7.004a31.194 31.194 0 014.18-.658l.131-.01a33.328 33.328 0 012.756-3.414l-.02.022c-2.08-2.025-4.049-3.175-5.46-3.175zm12.785 27.149c-.001 0-.001 0 0 0-1.9 0-4.34-1.431-6.872-4.031l-.453-.465.453-.465a31.427 31.427 0 003.16-3.854l.068-.103.18-.257.312-.027a31.74 31.74 0 005.267-.858l-.218.046.629-.159.179.624c1.316 4.645.917 7.977-1.099 9.139a3.132 3.132 0 01-1.562.411h-.047.002zm-5.461-4.508c2.08 2.025 4.049 3.175 5.46 3.175h.001c.356 0 .673-.077.939-.231 1.325-.764 1.561-3.421.647-7.005a30.933 30.933 0 01-4.182.658l-.13.01a33.219 33.219 0 01-2.755 3.416l.02-.022zm7.988-13.801l-.629-.159c-1.453-.376-3.175-.664-4.939-.806l-.111-.007-.312-.027-.18-.257a31.57 31.57 0 00-3.237-3.966l.009.01-.453-.465.453-.465C18.846 2.372 22.02 1.024 24 2.164c2.016 1.163 2.416 4.493 1.099 9.14zm-5.253-2.274c1.523.139 2.969.364 4.312.668.915-3.584.679-6.24-.647-7.004-1.317-.761-3.793.405-6.4 2.944a33.376 33.376 0 012.666 3.289l.069.103zM9.608 30.236h-.046a3.153 3.153 0 01-1.577-.419l.015.008c-2.016-1.161-2.416-4.492-1.097-9.139l.176-.624.629.159c1.54.388 3.239.661 5.047.812l.313.027.179.257a31.521 31.521 0 003.239 3.967l-.01-.01.453.465-.453.465c-2.531 2.6-4.971 4.031-6.868 4.031zm-1.587-8.569c-.915 3.584-.679 6.241.647 7.005 1.316.751 3.791-.407 6.4-2.944a33.543 33.543 0 01-2.667-3.29l-.069-.103a33.315 33.315 0 01-4.534-.711l.224.043zm7.979.837c-1.097 0-2.225-.048-3.355-.141l-.313-.027-.18-.257a38.303 38.303 0 01-1.697-2.639l-.103-.19a36.12 36.12 0 01-1.45-2.728l-.105-.243-.133-.284.133-.284a38.537 38.537 0 011.658-3.161l-.103.191a40.4 40.4 0 011.8-2.829l.18-.257.313-.027a40.227 40.227 0 016.86.011l-.15-.011.312.027.179.257a39.103 39.103 0 013.252 5.56l.104.24.135.284-.135.284a39.328 39.328 0 01-3.439 5.925l.083-.125-.179.257-.312.027a41.083 41.083 0 01-3.356.141zm-2.929-1.445c1.973.148 3.885.148 5.86 0a37.57 37.57 0 002.827-4.836l.101-.228a37.891 37.891 0 00-3.012-5.19l.083.126a39.304 39.304 0 00-5.992.008l.134-.008a36.95 36.95 0 00-2.83 4.84l-.099.224a38.502 38.502 0 003.014 5.193l-.085-.13z"/></symbol><symbol id="js" viewBox="0 0 32 32"><path d="M0 0h32v32H0zm29.379 24.368c-.233-1.46-1.184-2.687-4.004-3.831-.981-.46-2.072-.78-2.396-1.52-.121-.44-.14-.68-.061-.94.2-.861 1.22-1.12 2.02-.88.52.16 1 .56 1.301 1.2 1.379-.901 1.379-.901 2.34-1.5-.36-.56-.539-.801-.781-1.04-.84-.94-1.959-1.42-3.779-1.379l-.94.119c-.901.22-1.76.7-2.28 1.34-1.52 1.721-1.081 4.721.759 5.961 1.82 1.36 4.481 1.659 4.821 2.94.32 1.56-1.16 2.06-2.621 1.88-1.081-.24-1.68-.781-2.34-1.781l-2.44 1.401c.28.64.6.919 1.08 1.479 2.32 2.341 8.12 2.221 9.161-1.339.039-.12.32-.94.099-2.2zm-11.978-9.66h-2.997c0 2.584-.012 5.152-.012 7.74 0 1.643.084 3.151-.184 3.615-.44.919-1.573.801-2.088.64-.528-.261-.796-.621-1.107-1.14-.084-.14-.147-.261-.169-.261l-2.433 1.5c.407.84 1 1.563 1.765 2.023 1.14.68 2.672.9 4.276.54 1.044-.301 1.944-.921 2.415-1.881.68-1.24.536-2.76.529-4.461.016-2.739 0-5.479 0-8.239z"/></symbol><symbol id="html" viewBox="0 0 32 32"><path d="M1.892 0l2.567 28.801L15.983 32l11.554-3.204L30.109 0H1.893zM24.52 9.42H11.003l.322 3.617h12.874l-.97 10.844-7.245 2.008-7.237-2.008-.495-5.547h3.547l.252 2.82 3.933 1.06.009-.002 3.935-1.062.408-4.58H8.094L7.141 5.889h17.694l-.316 3.532z"/></symbol><symbol id="fb" viewBox="0 0 32 32"><path d="M19 6h5V0h-5c-3.86 0-7 3.14-7 7v3H8v6h4v16h6V16h5l1-6h-6V7c0-.542.458-1 1-1z"/></symbol><symbol id="facebook" viewBox="0 0 32 32"><path d="M29 0H3C1.35 0 0 1.35 0 3v26c0 1.65 1.35 3 3 3h13V18h-4v-4h4v-2c0-3.306 2.694-6 6-6h4v4h-4c-1.1 0-2 .9-2 2v2h6l-1 4h-5v14h9c1.65 0 3-1.35 3-3V3c0-1.65-1.35-3-3-3z"/></symbol><symbol id="instagram" viewBox="0 0 32 32"><path d="M16 2.881c4.275 0 4.781.019 6.462.094 1.563.069 2.406.331 2.969.55a4.952 4.952 0 011.837 1.194 5.015 5.015 0 011.2 1.838c.219.563.481 1.412.55 2.969.075 1.688.094 2.194.094 6.463s-.019 4.781-.094 6.463c-.069 1.563-.331 2.406-.55 2.969a4.94 4.94 0 01-1.194 1.837 5.02 5.02 0 01-1.837 1.2c-.563.219-1.413.481-2.969.55-1.688.075-2.194.094-6.463.094s-4.781-.019-6.463-.094c-1.563-.069-2.406-.331-2.969-.55a4.952 4.952 0 01-1.838-1.194 5.02 5.02 0 01-1.2-1.837c-.219-.563-.481-1.413-.55-2.969-.075-1.688-.094-2.194-.094-6.463s.019-4.781.094-6.463c.069-1.563.331-2.406.55-2.969a4.964 4.964 0 011.194-1.838 5.015 5.015 0 011.838-1.2c.563-.219 1.412-.481 2.969-.55 1.681-.075 2.188-.094 6.463-.094zM16 0c-4.344 0-4.887.019-6.594.094-1.7.075-2.869.35-3.881.744-1.056.412-1.95.956-2.837 1.85a7.833 7.833 0 00-1.85 2.831C.444 6.538.169 7.7.094 9.4.019 11.113 0 11.656 0 16s.019 4.887.094 6.594c.075 1.7.35 2.869.744 3.881.413 1.056.956 1.95 1.85 2.837a7.82 7.82 0 002.831 1.844c1.019.394 2.181.669 3.881.744 1.706.075 2.25.094 6.594.094s4.888-.019 6.594-.094c1.7-.075 2.869-.35 3.881-.744 1.05-.406 1.944-.956 2.831-1.844s1.438-1.781 1.844-2.831c.394-1.019.669-2.181.744-3.881.075-1.706.094-2.25.094-6.594s-.019-4.887-.094-6.594c-.075-1.7-.35-2.869-.744-3.881a7.506 7.506 0 00-1.831-2.844A7.82 7.82 0 0026.482.843C25.463.449 24.301.174 22.601.099c-1.712-.081-2.256-.1-6.6-.1z"/><path d="M16 7.781c-4.537 0-8.219 3.681-8.219 8.219s3.681 8.219 8.219 8.219 8.219-3.681 8.219-8.219A8.221 8.221 0 0016 7.781zm0 13.55a5.331 5.331 0 110-10.663 5.331 5.331 0 010 10.663zM26.462 7.456a1.919 1.919 0 11-3.838 0 1.919 1.919 0 013.838 0z"/></symbol><symbol id="telegram" viewBox="0 0 32 32"><path d="M16 0C7.162 0 0 7.162 0 16s7.162 16 16 16 16-7.163 16-16S24.837 0 16 0zm7.863 10.969l-2.625 12.369c-.181.881-.712 1.087-1.45.681l-4-2.956-1.919 1.869c-.225.219-.4.4-.8.4-.519 0-.431-.194-.606-.688L11.1 18.169l-3.956-1.231c-.856-.262-.862-.85.194-1.269l15.412-5.95c.7-.319 1.381.169 1.113 1.25z"/></symbol><symbol id="youtube" viewBox="0 0 32 32"><path d="M31.681 9.6s-.313-2.206-1.275-3.175C29.187 5.15 27.825 5.144 27.2 5.069c-4.475-.325-11.194-.325-11.194-.325h-.012s-6.719 0-11.194.325c-.625.075-1.987.081-3.206 1.356C.631 7.394.325 9.6.325 9.6s-.319 2.588-.319 5.181v2.425c0 2.587.319 5.181.319 5.181s.313 2.206 1.269 3.175c1.219 1.275 2.819 1.231 3.531 1.369 2.563.244 10.881.319 10.881.319s6.725-.012 11.2-.331c.625-.075 1.988-.081 3.206-1.356.962-.969 1.275-3.175 1.275-3.175s.319-2.587.319-5.181v-2.425c-.006-2.588-.325-5.181-.325-5.181zM12.694 20.15v-8.994l8.644 4.513-8.644 4.481z"/></symbol><symbol id="github" viewBox="0 0 32 32"><path d="M16 .395c-8.836 0-16 7.163-16 16 0 7.069 4.585 13.067 10.942 15.182.8.148 1.094-.347 1.094-.77 0-.381-.015-1.642-.022-2.979-4.452.968-5.391-1.888-5.391-1.888-.728-1.849-1.776-2.341-1.776-2.341-1.452-.993.11-.973.11-.973 1.606.113 2.452 1.649 2.452 1.649 1.427 2.446 3.743 1.739 4.656 1.33.143-1.034.558-1.74 1.016-2.14-3.554-.404-7.29-1.777-7.29-7.907 0-1.747.625-3.174 1.649-4.295-.166-.403-.714-2.03.155-4.234 0 0 1.344-.43 4.401 1.64a15.353 15.353 0 014.005-.539c1.359.006 2.729.184 4.008.539 3.054-2.07 4.395-1.64 4.395-1.64.871 2.204.323 3.831.157 4.234 1.026 1.12 1.647 2.548 1.647 4.295 0 6.145-3.743 7.498-7.306 7.895.574.497 1.085 1.47 1.085 2.963 0 2.141-.019 3.864-.019 4.391 0 .426.288.925 1.099.768C27.421 29.457 32 23.462 32 16.395c0-8.837-7.164-16-16-16z"/></symbol><symbol id="skype" viewBox="0 0 32 32"><path d="M13.3 1.169c-.05-.031-.106-.056-.156-.081-.056.012-.106.019-.162.031l.319.05zM1.15 13.156a1.84 1.84 0 00-.025.162c.031.05.05.1.081.15l-.056-.313zM30.837 18.831c.012-.056.019-.113.031-.169-.031-.05-.05-.1-.081-.15l.05.319zM18.5 30.719c.05.031.106.056.156.081a1.64 1.64 0 01.169-.025l-.325-.056z"/><path d="M30.869 18.663c-.012.056-.019.113-.031.169l-.056-.325c.031.056.056.106.087.156.163-.9.25-1.819.25-2.738a15.067 15.067 0 00-4.426-10.687 15.133 15.133 0 00-4.8-3.237A15.023 15.023 0 0016.012.813c-.963 0-1.925.088-2.863.269h-.006c.05.025.106.05.156.081l-.319-.05c.056-.012.106-.019.162-.031A8.99 8.99 0 008.948.032C6.56.032 4.31.963 2.623 2.651S.004 6.588.004 8.976c0 1.519.394 3.019 1.125 4.338a1.84 1.84 0 00.025-.162l.056.319c-.031-.05-.056-.1-.081-.15-.15.856-.225 1.731-.225 2.606a15.072 15.072 0 004.425 10.681 15.1 15.1 0 004.806 3.238 15.023 15.023 0 008.525.95c-.05-.031-.1-.056-.156-.081l.325.056a1.64 1.64 0 01-.169.025 8.956 8.956 0 004.4 1.163c2.387 0 4.637-.931 6.325-2.619s2.619-3.938 2.619-6.325a9.07 9.07 0 00-1.137-4.35zm-14.8 6.518c-5.369 0-7.769-2.637-7.769-4.619 0-1.012.75-1.725 1.781-1.725 2.3 0 1.7 3.3 5.988 3.3 2.194 0 3.406-1.194 3.406-2.413 0-.731-.363-1.544-1.806-1.9l-4.775-1.194c-3.844-.963-4.544-3.044-4.544-5 0-4.056 3.819-5.581 7.406-5.581 3.306 0 7.2 1.825 7.2 4.263 0 1.044-.906 1.65-1.938 1.65-1.962 0-1.6-2.713-5.55-2.713-1.963 0-3.044.887-3.044 2.156s1.55 1.675 2.894 1.981l3.538.787c3.869.863 4.85 3.125 4.85 5.25 0 3.294-2.531 5.756-7.637 5.756z"/></symbol><symbol id="linkedin" viewBox="0 0 32 32"><path d="M29 0H3C1.35 0 0 1.35 0 3v26c0 1.65 1.35 3 3 3h26c1.65 0 3-1.35 3-3V3c0-1.65-1.35-3-3-3zM12 26H8V12h4v14zm-2-16c-1.106 0-2-.894-2-2s.894-2 2-2c1.106 0 2 .894 2 2s-.894 2-2 2zm16 16h-4v-8c0-1.106-.894-2-2-2s-2 .894-2 2v8h-4V12h4v2.481C18.825 13.35 20.087 12 21.5 12c2.488 0 4.5 2.238 4.5 5v9z"/></symbol><symbol id="in" viewBox="0 0 32 32"><path d="M12 12h5.535v2.837h.079c.77-1.381 2.655-2.837 5.464-2.837C28.92 12 30 15.637 30 20.367V30h-5.769v-8.54c0-2.037-.042-4.657-3.001-4.657-3.005 0-3.463 2.218-3.463 4.509V30H12V12zM2 12h6v18H2V12zM8 7a3 3 0 11-6 0 3 3 0 016 0z"/></symbol><symbol id="pdf" viewBox="0 0 32 32"><path d="M26.313 18.421c-.427-.42-1.372-.643-2.812-.662-.974-.011-2.147.075-3.38.248-.552-.319-1.122-.665-1.568-1.083-1.202-1.122-2.205-2.68-2.831-4.394.041-.16.075-.301.108-.444 0 0 .677-3.846.498-5.146a1.526 1.526 0 00-.088-.369l-.059-.151c-.184-.425-.545-.875-1.111-.85l-.341-.011c-.631 0-1.146.323-1.281.805-.411 1.514.013 3.778.781 6.711l-.197.478c-.55 1.34-1.238 2.689-1.846 3.88l-.079.155a65.82 65.82 0 01-1.745 3.213l-.543.287c-.04.021-.97.513-1.188.645-1.852 1.106-3.079 2.361-3.282 3.357-.065.318-.017.725.313.913l.525.264c.228.114.468.172.714.172 1.319 0 2.85-1.643 4.959-5.324a49.318 49.318 0 017.638-1.815c1.852 1.043 4.129 1.767 5.567 1.767.255 0 .475-.024.654-.072a1.11 1.11 0 00.65-.444c.279-.42.335-.998.26-1.59-.023-.176-.163-.393-.315-.541zM6.614 25.439c.241-.658 1.192-1.958 2.6-3.111.088-.072.306-.276.506-.466-1.472 2.348-2.458 3.283-3.106 3.577zM14.951 6.24c.424 0 .665 1.069.685 2.07s-.214 1.705-.505 2.225c-.241-.77-.357-1.984-.357-2.778 0 0-.018-1.517.177-1.517zm-2.487 13.682c.295-.529.603-1.086.917-1.677a31.984 31.984 0 001.609-3.511c.716 1.303 1.608 2.41 2.656 3.297.131.111.269.222.415.333-2.132.422-3.974.935-5.596 1.558zm13.439-.12c-.13.081-.502.128-.741.128-.772 0-1.727-.353-3.066-.927.515-.038.986-.057 1.409-.057.774 0 1.004-.003 1.761.19s.767.585.637.667z"/><path d="M28.681 7.159c-.694-.947-1.662-2.053-2.724-3.116s-2.169-2.03-3.116-2.724C21.229.137 20.448 0 20 0H4.5A2.503 2.503 0 002 2.5v27C2 30.878 3.121 32 4.5 32h23c1.378 0 2.5-1.122 2.5-2.5V10c0-.448-.137-1.23-1.319-2.841zm-4.138-1.702A27.334 27.334 0 0126.811 8H22V3.189a27.334 27.334 0 012.543 2.268zM28 29.5c0 .271-.229.5-.5.5h-23a.507.507 0 01-.5-.5v-27c0-.271.229-.5.5-.5H20v7a1 1 0 001 1h7v19.5z"/></symbol><symbol id="phone" viewBox="0 0 21 32"><path d="M18.133 0H3.2C1.436 0 0 1.34 0 2.987v25.89c0 1.647 1.436 2.987 3.2 2.987h14.933c1.764 0 3.2-1.34 3.2-2.987V2.987c0-1.647-1.436-2.987-3.2-2.987zM3.2 1.99h14.933c.589 0 1.067.448 1.067.996v20.911H2.133V2.986c0-.548.478-.996 1.067-.996zm14.933 27.883H3.2c-.589 0-1.067-.448-1.067-.996V25.89H19.2v2.987c0 .548-.478.994-1.067.994z"/></symbol><symbol id="email" viewBox="0 0 43 32"><path d="M38.667 0H4C1.795 0 0 1.675 0 3.733v22.405c0 2.059 1.795 3.733 4 3.733h34.667c2.205 0 4-1.675 4-3.733V3.733c0-2.059-1.795-3.733-4-3.733zm0 2.488c.181 0 .355.037.512.099L21.334 17.024 3.489 2.587c.152-.062.327-.098.512-.099h34.667zm0 24.893H4c-.736 0-1.333-.557-1.333-1.243V5.215L20.459 19.61c.235.189.537.304.866.304h.017c.329 0 .631-.115.869-.306l-.003.002L40 5.215v20.923c0 .685-.597 1.243-1.333 1.243z"/></symbol></defs></svg>